<svg id="Layer_1" data-name="Layer 1" xmlns="http://www.w3.org/2000/svg" xmlns:xlink="http://www.w3.org/1999/xlink" viewBox="0 0 402.26 114.37"><defs><style>.cls-1{fill:url(#linear-gradient);}.cls-2{fill:url(#linear-gradient-2);}.cls-3{fill:url(#linear-gradient-3);}.cls-4{fill:url(#linear-gradient-4);}.cls-5{fill:url(#linear-gradient-5);}.cls-6{fill:url(#linear-gradient-6);}.cls-7{fill:url(#linear-gradient-7);}.cls-8{fill:url(#linear-gradient-8);}.cls-9{fill:url(#linear-gradient-9);}.cls-10{fill:url(#linear-gradient-10);}.cls-11{fill:url(#linear-gradient-11);}.cls-12{fill:url(#linear-gradient-12);}.cls-13{fill:#fff;}.cls-14,.cls-20{stroke:#000;stroke-miterlimit:10;stroke-width:2px;}.cls-14{fill:url(#linear-gradient-13);}.cls-15{font-size:36px;font-family:ACaslonPro-Bold, Adobe Caslon Pro;font-weight:700;}.cls-16{letter-spacing:0.02em;}.cls-17{letter-spacing:0.01em;}.cls-18{letter-spacing:0em;}.cls-19{letter-spacing:0em;}.cls-20{fill:none;}</style><linearGradient id="linear-gradient" x1="312.57" y1="28.57" x2="314.93" y2="187.17" gradientUnits="userSpaceOnUse"><stop offset="0" stop-color="#0041e7"/><stop offset="0.07" stop-color="#0b59e7"/><stop offset="0.26" stop-color="#2998e7"/><stop offset="0.4" stop-color="#3bbfe7"/><stop offset="0.48" stop-color="#42cee7"/><stop offset="0.56" stop-color="#68d8ec"/><stop offset="0.71" stop-color="#a8e9f4"/><stop offset="0.84" stop-color="#d7f5fa"/><stop offset="0.94" stop-color="#f4fcfe"/><stop offset="1" stop-color="#fff"/></linearGradient><linearGradient id="linear-gradient-2" x1="256.07" y1="13.51" x2="317.82" y2="71.89" gradientUnits="userSpaceOnUse"><stop offset="0" stop-color="#ff0068"/><stop offset="0.01" stop-color="#ff0268"/><stop offset="0.23" stop-color="#ff4168"/><stop offset="0.39" stop-color="#ff6868"/><stop offset="0.47" stop-color="#ff7768"/><stop offset="0.55" stop-color="#f16c5e"/><stop offset="0.69" stop-color="#cb4d44"/><stop offset="0.89" stop-color="#8f1d1a"/><stop offset="1" stop-color="#6a0000"/></linearGradient><linearGradient id="linear-gradient-3" x1="256.64" y1="16.01" x2="317.79" y2="73.84" xlink:href="#linear-gradient-2"/><linearGradient id="linear-gradient-4" x1="228.78" y1="87.37" x2="307.78" y2="87.37" gradientUnits="userSpaceOnUse"><stop offset="0" stop-color="#ff0068"/><stop offset="0.08" stop-color="#ff1068"/><stop offset="0.25" stop-color="#ff3b68"/><stop offset="0.45" stop-color="#ff7768"/><stop offset="0.49" stop-color="#ee6a5c"/><stop offset="0.61" stop-color="#bf443c"/><stop offset="0.72" stop-color="#9a2722"/><stop offset="0.83" stop-color="#80110f"/><stop offset="0.93" stop-color="#700504"/><stop offset="1" stop-color="#6a0000"/></linearGradient><linearGradient id="linear-gradient-5" x1="358.86" y1="32.08" x2="350.96" y2="69.12" gradientUnits="userSpaceOnUse"><stop offset="0" stop-color="#ff3e68"/><stop offset="0.17" stop-color="#ff5668"/><stop offset="0.37" stop-color="#ff7768"/><stop offset="0.47" stop-color="#ec685b"/><stop offset="0.69" stop-color="#bc4139"/><stop offset="0.98" stop-color="#6e0303"/><stop offset="1" stop-color="#6a0000"/></linearGradient><linearGradient id="linear-gradient-6" x1="365.31" y1="17.97" x2="350.68" y2="78.57" gradientUnits="userSpaceOnUse"><stop offset="0" stop-color="#ff3e68"/><stop offset="0.04" stop-color="#ff4468"/><stop offset="0.34" stop-color="#ff6968"/><stop offset="0.5" stop-color="#ff7768"/><stop offset="0.58" stop-color="#ec685b"/><stop offset="0.75" stop-color="#bc4139"/><stop offset="0.99" stop-color="#6e0303"/><stop offset="1" stop-color="#6a0000"/></linearGradient><linearGradient id="linear-gradient-7" x1="332.12" y1="98.55" x2="330.35" y2="99.42" gradientUnits="userSpaceOnUse"><stop offset="0" stop-color="#ff3e68"/><stop offset="0.14" stop-color="#ff4268"/><stop offset="0.28" stop-color="#ff4d68"/><stop offset="0.41" stop-color="#ff6068"/><stop offset="0.52" stop-color="#ff7768"/><stop offset="0.54" stop-color="#f67062"/><stop offset="0.62" stop-color="#c4483f"/><stop offset="0.7" stop-color="#9d2924"/><stop offset="0.78" stop-color="#811210"/><stop offset="0.84" stop-color="#700504"/><stop offset="0.89" stop-color="#6a0000"/></linearGradient><linearGradient id="linear-gradient-8" x1="400.45" y1="73.12" x2="343.53" y2="101.01" xlink:href="#linear-gradient-7"/><linearGradient id="linear-gradient-9" x1="332.6" y1="95.59" x2="330.83" y2="96.45" gradientUnits="userSpaceOnUse"><stop offset="0" stop-color="#ff3e68"/><stop offset="0.15" stop-color="#ff4968"/><stop offset="0.4" stop-color="#ff6568"/><stop offset="0.54" stop-color="#ff7768"/><stop offset="0.56" stop-color="#f67062"/><stop offset="0.66" stop-color="#c4483f"/><stop offset="0.77" stop-color="#9d2924"/><stop offset="0.86" stop-color="#811210"/><stop offset="0.94" stop-color="#700504"/><stop offset="1" stop-color="#6a0000"/></linearGradient><linearGradient id="linear-gradient-10" x1="400.43" y1="70.35" x2="343.94" y2="98.04" xlink:href="#linear-gradient-9"/><linearGradient id="linear-gradient-11" x1="278.05" y1="83.39" x2="366.95" y2="83.39" gradientUnits="userSpaceOnUse"><stop offset="0" stop-color="#ffbb68"/><stop offset="0.19" stop-color="#ffa368"/><stop offset="0.48" stop-color="#ff7768"/><stop offset="0.63" stop-color="#cc4f45"/><stop offset="0.8" stop-color="#972420"/><stop offset="0.93" stop-color="#760a09"/><stop offset="1" stop-color="#6a0000"/></linearGradient><linearGradient id="linear-gradient-12" x1="278.04" y1="83.89" x2="363.96" y2="83.89" gradientUnits="userSpaceOnUse"><stop offset="0" stop-color="#ffbb68"/><stop offset="0.23" stop-color="#ffa368"/><stop offset="0.59" stop-color="#ff7768"/><stop offset="0.66" stop-color="#ec685b"/><stop offset="0.8" stop-color="#bc4139"/><stop offset="0.99" stop-color="#6e0303"/><stop offset="1" stop-color="#6a0000"/></linearGradient><linearGradient id="linear-gradient-13" x1="200.34" y1="-84.52" x2="199.37" y2="315.48" gradientUnits="userSpaceOnUse"><stop offset="0" stop-color="#9fffff"/><stop offset="0.14" stop-color="#7ed7fa"/><stop offset="0.39" stop-color="#4897f2"/><stop offset="0.61" stop-color="#2168ec"/><stop offset="0.77" stop-color="#094ce8"/><stop offset="0.86" stop-color="#0041e7"/></linearGradient></defs><rect class="cls-1" x="228" y="5.37" width="170" height="104"/><path d="M290.12,28.48A9,9,0,0,1,300,27.43s5.24-2.4,9-1c0,0-8.18,2.67-8.6,4.56C300.4,31,297,27.85,290.12,28.48Z" transform="translate(1 1.37)"/><path d="M297.12,17.48A9,9,0,0,1,307,16.43s5.24-2.4,9-1c0,0-8.18,2.67-8.6,4.56C307.4,20,304,16.85,297.12,17.48Z" transform="translate(1 1.37)"/><path d="M311.12,32.48a9,9,0,0,1,9.86-1s5.24-2.4,9-1c0,0-8.18,2.67-8.6,4.56C321.4,35,318,31.85,311.12,32.48Z" transform="translate(1 1.37)"/><polygon class="cls-2" points="276.16 3.86 230.99 6.43 228.66 11.23 228.38 15.96 317.07 82.43 276.16 3.86"/><polygon class="cls-3" points="274.12 3.58 235.8 4.76 230.71 15.52 230.42 20.19 315.72 85.68 274.12 3.58"/><polygon class="cls-4" points="310 84.37 232 71.37 231 93.37 239.11 103.37 304 92.37 310 84.37"/><polygon class="cls-5" points="348.32 4.13 328.67 79.71 333.07 80.31 384.66 5.01 348.32 4.13"/><polygon class="cls-6" points="352.48 4.39 329.78 78.67 334.15 79.45 389.03 6.18 352.48 4.39"/><polygon class="cls-7" points="329.93 99.22 331.09 99.45 332.29 98.78 329.93 99.22"/><polygon class="cls-8" points="397.08 62.61 332.29 98.78 397.02 86.96 397.08 62.61"/><polygon class="cls-9" points="330.42 96.25 331.58 96.49 332.77 95.82 330.42 96.25"/><polygon class="cls-10" points="397.08 59.92 332.77 95.82 397.08 84.07 397.08 59.92"/><path class="cls-11" d="M367,105.78C365.85,80.85,346.37,61,322.5,61s-43.35,19.85-44.45,44.78Z" transform="translate(1 1.37)"/><path class="cls-12" d="M364,105.78C363.1,81.45,344.2,62,321,62s-42.1,19.45-43,43.78Z" transform="translate(1 1.37)"/><path class="cls-13" d="M287.65,105.78c-.17-.38-.33-.75-.51-1.12-6.47-13.51-22.27-20.1-37.35-20.65a46.27,46.27,0,0,0-19.39,4.37,16.85,16.85,0,0,0-2.69,1.7,4.36,4.36,0,0,1-5.85-.33c-4.47-4.43-11.23-5.57-18.32-5.06-9.11.66-17.48,5.23-25,10.45-4.16,2.9-8.32,6.32-10.77,10.64Z" transform="translate(1 1.37)"/><path class="cls-13" d="M397,4,326.44,2.61a15,15,0,0,0,0,7.62c2.08,7.62,9.21,13,16.8,15.22,6.48,1.88,13.31,1.82,20.07,1.44a4.54,4.54,0,0,1,4.46,2.91c4.38,11.13,16.4,18.44,28.47,19.91l.76.08Z" transform="translate(1 1.37)"/><path class="cls-14" d="M0,0V110H400V0ZM393.15,88.61A14.39,14.39,0,0,1,378.76,103H259.39A14.39,14.39,0,0,1,245,88.61V20.39A14.39,14.39,0,0,1,259.39,6H378.76a14.39,14.39,0,0,1,14.39,14.39Z" transform="translate(1 1.37)"/><text class="cls-15" transform="translate(72.25 41.17)">Joshua </text><text class="cls-15" transform="translate(51.25 89.17)">Ma<tspan class="cls-16" x="52.06" y="0">r</tspan><tspan class="cls-17" x="66.13" y="0">t</tspan><tspan class="cls-18" x="78.59" y="0">in</tspan><tspan class="cls-19" x="109.37" y="0">e</tspan><tspan x="125.75" y="0">z </tspan></text><path d="M379.61,7A12.41,12.41,0,0,1,392,19.39V89.61A12.41,12.41,0,0,1,379.61,102H258.39A12.41,12.41,0,0,1,246,89.61V19.39A12.41,12.41,0,0,1,258.39,7H379.61m0-2H258.39A14.39,14.39,0,0,0,244,19.39V89.61A14.39,14.39,0,0,0,258.39,104H379.61A14.39,14.39,0,0,0,394,89.61V19.39A14.39,14.39,0,0,0,379.61,5Z" transform="translate(1 1.37)"/><path class="cls-20" d="M.26-.37v110h400V-.37ZM393.4,88.24A14.38,14.38,0,0,1,379,102.63H259.65a14.39,14.39,0,0,1-14.39-14.39V20A14.39,14.39,0,0,1,259.65,5.63H379A14.38,14.38,0,0,1,393.4,20Z" transform="translate(1 1.37)"/></svg>